# xmcd
#
# Track frame offsets:
#	150
#	27190
#	59095
#	91167
#	129173
#	150402
#	171407
#
# Disc length: 2801 seconds
#
# Revision: 1
# Processed by: cddbd v1.5.2PL0 Copyright (c) Steve Scherf et al.
# Submitted via: audiograbber 1.83.01
#
DISCID=500aef07
DTITLE=The Bluesers - Live At Trendz
DYEAR=2006
DGENRE=blues
TTITLE0=Instrumental
TTITLE1=Ain't Nobody's Business
TTITLE2=Look Who's Talking
TTITLE3=The Something
TTITLE4=Slabo Day
TTITLE5=Before U Accuse Me
TTITLE6=E Blues
EXTD=
EXTT0=
EXTT1=
EXTT2=
EXTT3=
EXTT4=
EXTT5=
EXTT6=
PLAYORDER=
